<svg width="16" height="16" viewBox="0 0 16 16" fill="none" xmlns="http://www.w3.org/2000/svg">
<g clip-path="url(#clip0_114_2234)">
<path d="M11.6667 1.27759C10.916 1.28926 10.1816 1.49882 9.53783 1.8851C8.89404 2.27138 8.36357 2.8207 7.99999 3.47759C7.63642 2.8207 7.10595 2.27138 6.46215 1.8851C5.81835 1.49882 5.08403 1.28926 4.33333 1.27759C3.13662 1.32958 2.00913 1.85309 1.19718 2.73374C0.385232 3.61439 -0.0451745 4.7806 -7.46104e-06 5.97759C-7.46104e-06 9.00892 3.19066 12.3196 5.86666 14.5643C6.46414 15.0663 7.21956 15.3416 7.99999 15.3416C8.78042 15.3416 9.53585 15.0663 10.1333 14.5643C12.8093 12.3196 16 9.00892 16 5.97759C16.0452 4.7806 15.6148 3.61439 14.8028 2.73374C13.9909 1.85309 12.8634 1.32958 11.6667 1.27759Z" fill="current"/>
</g>
<defs>
<clipPath id="clip0_114_2234">
<rect width="16" height="16" fill="white"/>
</clipPath>
</defs>
</svg>
