<svg width="237" height="78" viewBox="0 0 237 78" fill="none" xmlns="http://www.w3.org/2000/svg">
<g filter="url(#filter0_d_114_2284)">
<path d="M82.3906 34.7969C82.3906 37.0781 82.6406 38.9375 83.1406 40.375C83.6406 41.8125 84.5156 42.9219 85.7656 43.7031C85.7969 43.8594 85.8125 44.125 85.8125 44.5V45.2031C85.8125 49.4844 84.5625 52.8281 82.0625 55.2344C79.5625 57.6406 76.3281 58.8438 72.3594 58.8438C68.4219 58.8438 65.25 57.7656 62.8438 55.6094C60 53.1094 58.5781 49.2812 58.5781 44.125V29.3125C58.5781 27.2188 57.8906 26.1719 56.5156 26.1719C55.9844 26.1719 55.5625 26.2969 55.25 26.5469L56.0938 33.5312V44.125C56.0938 48.375 56.7969 51.5938 58.2031 53.7812C56.7031 55.375 54.8281 56.625 52.5781 57.5312C50.3594 58.4062 48.0938 58.8438 45.7812 58.8438C42.0312 58.8438 39.125 57.9375 37.0625 56.125C34.5625 53.9375 33.3125 50.4844 33.3125 45.7656V29.3125C33.3125 27.2188 32.625 26.1719 31.25 26.1719C30.7188 26.1719 30.2969 26.2969 29.9844 26.5469L30.8281 33.5312V45.9531C30.8281 49.4531 31.2969 52.1562 32.2344 54.0625C29.1719 57.2188 24.875 58.7969 19.3438 58.7969C16.0625 58.7969 13.2969 57.9688 11.0469 56.3125C8.45312 54.4062 7.15625 51.8438 7.15625 48.625V26.2188C5.3125 23.625 4.39062 20.4375 4.39062 16.6562C4.39062 12.8437 5.3125 9.54687 7.15625 6.76562H18.4531C20.6719 6.76562 22.5625 7.59375 24.125 9.25C22.75 10.5313 22.0625 11.5938 22.0625 12.4375C22.0625 13.4062 22.6094 13.8906 23.7031 13.8906C25.0781 11.5156 26.9688 9.625 29.375 8.21875C32.1875 6.625 35.4844 5.82812 39.2656 5.82812C42.1406 5.82812 44.6562 6.4375 46.8125 7.65625C49 8.875 50.625 10.2812 51.6875 11.875C53.1562 9.875 55.0625 8.375 57.4062 7.375C59.7812 6.34375 62.25 5.82812 64.8125 5.82812C70.4688 5.82812 74.8594 7.57812 77.9844 11.0781C81.0469 14.5781 82.5781 19.375 82.5781 25.4688L82.3906 34.7969ZM112.438 37.5625C112.812 37.5625 113.219 37.4062 113.656 37.0938C113.344 36.0625 113.188 34.4531 113.188 32.2656V9.10938C116.5 7.10937 120.484 6.10938 125.141 6.10938C127.766 6.10938 130.062 6.46875 132.031 7.1875C134.031 7.875 135.562 8.79687 136.625 9.95312V34.375C136.625 39.0312 137.75 42.0625 140 43.4688C140.031 43.625 140.047 43.9219 140.047 44.3594V45.2031C140.047 49.7656 138.844 53.2188 136.438 55.5625C134.25 57.75 131.234 58.8438 127.391 58.8438C124.984 58.8438 122.797 58.2969 120.828 57.2031C118.891 56.1094 117.438 54.5156 116.469 52.4219C115.406 52.4219 114.875 52.9375 114.875 53.9688C114.875 54.6875 115.234 55.4062 115.953 56.125C114.953 56.9375 113.75 57.5938 112.344 58.0938C110.938 58.5938 108.859 58.8438 106.109 58.8438C103.391 58.8438 100.734 58.2812 98.1406 57.1562C94.9219 55.7812 92.4531 53.6719 90.7344 50.8281C88.6406 47.4531 87.5938 43.1719 87.5938 37.9844V26.2188C86 23.4375 85.2031 20.375 85.2031 17.0312C85.2031 15.3125 85.4219 13.5313 85.8594 11.6875C86.2969 9.84375 87 8.20313 87.9688 6.76562H98.2812C102.156 6.76562 105.188 7.6875 107.375 9.53125C109.594 11.3437 110.703 14.1094 110.703 17.8281V33.0156C110.703 36.0469 111.281 37.5625 112.438 37.5625ZM191.328 59.4531C182.672 59.4531 175.844 57.0469 170.844 52.2344C165.719 47.3906 163.156 40.7656 163.156 32.3594C163.156 23.9219 165.797 17.2344 171.078 12.2969C175.953 7.70312 182.125 5.40625 189.594 5.40625C197.062 5.40625 203.047 7.46875 207.547 11.5938C212.078 15.6875 214.344 20.7344 214.344 26.7344C214.344 32.0781 212.484 36.1094 208.766 38.8281C205.328 41.3906 200.641 42.6719 194.703 42.6719C190.266 42.6719 186.516 41.75 183.453 39.9062C183.203 40.0938 183.078 40.4375 183.078 40.9375C183.078 41.875 184.312 42.7344 186.781 43.5156C189.25 44.3594 192.047 44.7812 195.172 44.7812C198.328 44.7812 201.188 44.3906 203.75 43.6094C206.344 42.7969 208.422 41.8438 209.984 40.75C210.734 41.4062 211.328 42.625 211.766 44.4062C212.234 46.1562 212.469 47.7656 212.469 49.2344C212.469 50.6719 212.328 51.9531 212.047 53.0781C209.609 55.1406 207.109 56.6094 204.547 57.4844C200.922 58.7969 196.516 59.4531 191.328 59.4531ZM190.719 27.7188C192.281 27.7188 193.062 27.125 193.062 25.9375C193.062 24.8125 192.234 24.25 190.578 24.25C188.922 24.25 187.969 25.1406 187.719 26.9219C188.594 27.4531 189.594 27.7188 190.719 27.7188Z" fill="white"/>
</g>
<ellipse cx="14.9795" cy="15.3598" rx="14.9795" ry="15.3598" transform="matrix(0.996333 0.0855637 0.0855637 -0.996333 138.421 52.9417)" fill="#405690"/>
<path d="M140.536 34.7902C140.145 39.3527 140.958 43.9737 142.929 48.3893C144.901 52.8049 147.992 56.9287 152.026 60.5252C156.061 64.1216 160.96 67.1204 166.443 69.3501C171.927 71.5799 177.887 72.9971 183.985 73.5208C190.082 74.0444 196.197 73.6643 201.981 72.4021C207.764 71.1398 213.102 69.0203 217.691 66.1644C222.28 63.3084 226.029 59.7721 228.724 55.7573C231.42 51.7425 233.009 47.3278 233.401 42.7652L216.781 41.338C216.53 44.2675 215.509 47.102 213.779 49.6798C212.048 52.2577 209.641 54.5282 206.695 56.3619C203.748 58.1956 200.321 59.5566 196.607 60.367C192.894 61.1774 188.968 61.4215 185.053 61.0853C181.138 60.7491 177.311 59.8391 173.79 58.4074C170.269 56.9758 167.124 55.0503 164.533 52.7412C161.943 50.432 159.958 47.7842 158.692 44.9491C157.426 42.1139 156.904 39.1469 157.156 36.2175L140.536 34.7902Z" fill="#405690"/>
<ellipse cx="18.0309" cy="18.4733" rx="18.0309" ry="18.4733" transform="matrix(0.996333 0.0855637 0.0855637 -0.996333 195.873 58.292)" fill="#405690"/>
<ellipse cx="5.99176" cy="7.13017" rx="5.99176" ry="7.13017" transform="matrix(0.988249 0.15285 0.192669 -0.981264 210.131 46.3535)" fill="#58BE9F"/>
<ellipse cx="5.49244" cy="7.92241" rx="5.49244" ry="7.92241" transform="matrix(0.988249 0.15285 0.192669 -0.981264 143.317 44.8306)" fill="#58BE9F"/>
<defs>
<filter id="filter0_d_114_2284" x="0.390625" y="5.40625" width="217.953" height="62.0469" filterUnits="userSpaceOnUse" color-interpolation-filters="sRGB">
<feFlood flood-opacity="0" result="BackgroundImageFix"/>
<feColorMatrix in="SourceAlpha" type="matrix" values="0 0 0 0 0 0 0 0 0 0 0 0 0 0 0 0 0 0 127 0" result="hardAlpha"/>
<feOffset dy="4"/>
<feGaussianBlur stdDeviation="2"/>
<feComposite in2="hardAlpha" operator="out"/>
<feColorMatrix type="matrix" values="0 0 0 0 0 0 0 0 0 0 0 0 0 0 0 0 0 0 0.25 0"/>
<feBlend mode="normal" in2="BackgroundImageFix" result="effect1_dropShadow_114_2284"/>
<feBlend mode="normal" in="SourceGraphic" in2="effect1_dropShadow_114_2284" result="shape"/>
</filter>
</defs>
</svg>
