<svg width="16" height="16" viewBox="0 0 16 16" fill="none" xmlns="http://www.w3.org/2000/svg">
<g clip-path="url(#clip0_114_2231)">
<path d="M9.34845 7.3335H0.56046C0.325779 7.3335 0 7.63197 0 8.00016C0 8.36836 0.325779 8.66683 0.651558 8.66683H9.43954C9.67422 8.66683 10 8.36836 10 8.00016C10 7.63197 9.67422 7.3335 9.34845 7.3335Z" fill="current"/>
<path d="M0.695648 3.82634H15.3043C15.6885 3.82634 16 3.51489 16 3.1307C16 2.7465 15.6885 2.43506 15.3043 2.43506H0.695648C0.311453 2.43506 7.62939e-06 2.7465 7.62939e-06 3.1307C7.62939e-06 3.51489 0.311453 3.82634 0.695648 3.82634Z" fill="current"/>
<path d="M7.33333 12H0.525431C0.333333 12 0 12.2985 0 12.6667C0 13.0349 0.333333 13.3333 0.666667 13.3333H7.33333C7.66667 13.3333 8 13.0349 8 12.6667C8.00002 12.2985 7.66667 12 7.33333 12Z" fill="current"/>
<path d="M15.5582 6.94878C15.4202 6.83374 15.2585 6.7507 15.0846 6.70563C14.9107 6.66056 14.729 6.65459 14.5526 6.68815L11.7464 7.21431C11.3961 7.27995 11.0798 7.46596 10.8522 7.74015C10.6246 8.01434 10.5 8.35946 10.5 8.71581V11.7255C10.315 11.6156 10.1041 11.5569 9.88889 11.5556C9.64715 11.5556 9.41085 11.6273 9.20986 11.7616C9.00886 11.8959 8.85221 12.0868 8.7597 12.3101C8.66719 12.5335 8.64299 12.7792 8.69015 13.0163C8.73731 13.2534 8.85371 13.4712 9.02465 13.6421C9.19558 13.813 9.41336 13.9294 9.65044 13.9766C9.88753 14.0238 10.1333 13.9996 10.3566 13.907C10.5799 13.8145 10.7708 13.6579 10.9051 13.4569C11.0394 13.2559 11.1111 13.0196 11.1111 12.7779V9.98997C11.1111 9.8474 11.1609 9.70931 11.252 9.5996C11.3431 9.4899 11.4696 9.41549 11.6098 9.38925L15.0268 8.74759C15.0711 8.73924 15.1167 8.74081 15.1604 8.75219C15.204 8.76356 15.2446 8.78446 15.2792 8.81338C15.3139 8.84229 15.3416 8.87852 15.3606 8.91944C15.3796 8.96037 15.3892 9.00498 15.3889 9.05009V10.8101C15.204 10.6997 14.9931 10.6406 14.7778 10.639C14.536 10.639 14.2997 10.7107 14.0987 10.845C13.8978 10.9793 13.7411 11.1701 13.6486 11.3935C13.5561 11.6168 13.5319 11.8626 13.579 12.0996C13.6262 12.3367 13.7426 12.5545 13.9135 12.7254C14.0845 12.8964 14.3022 13.0128 14.5393 13.0599C14.7764 13.1071 15.0222 13.0829 15.2455 12.9904C15.4688 12.8979 15.6597 12.7412 15.794 12.5402C15.9283 12.3392 16 12.1029 16 11.8612V7.88898C16.0002 7.70938 15.9607 7.53197 15.8843 7.36943C15.8079 7.20688 15.6966 7.06324 15.5582 6.94878V6.94878Z" fill="current"/>
</g>
<defs>
<clipPath id="clip0_114_2231">
<rect width="16" height="16" fill="white"/>
</clipPath>
</defs>
</svg>
