<svg width="16" height="16" viewBox="0 0 16 16" fill="none" xmlns="http://www.w3.org/2000/svg">
<g clip-path="url(#clip0_114_2216)">
<path d="M15.036 0.615353C14.735 0.364344 14.3822 0.183159 14.0028 0.0848302C13.6234 -0.0134982 13.227 -0.0265253 12.842 0.0466859L6.71934 1.19469C5.95516 1.3379 5.26508 1.74373 4.7685 2.34197C4.27191 2.9402 4.00007 3.6932 4 4.47069V11.0374C3.59644 10.7974 3.13617 10.6694 2.66667 10.6667C2.13925 10.6667 1.62368 10.8231 1.18515 11.1161C0.746616 11.4091 0.404823 11.8256 0.202989 12.3129C0.00115542 12.8001 -0.0516535 13.3363 0.0512405 13.8536C0.154134 14.3709 0.40811 14.846 0.78105 15.219C1.15399 15.5919 1.62914 15.8459 2.14643 15.9488C2.66371 16.0517 3.19989 15.9989 3.68716 15.797C4.17443 15.5952 4.5909 15.2534 4.88392 14.8149C5.17694 14.3763 5.33334 13.8608 5.33334 13.3334V7.25069C5.33331 6.93961 5.44206 6.63831 5.64075 6.39896C5.83944 6.15961 6.11557 5.99726 6.42134 5.94002L13.8767 4.54002C13.9734 4.52181 14.0729 4.52524 14.1681 4.55006C14.2634 4.57487 14.3519 4.62047 14.4274 4.68356C14.503 4.74665 14.5636 4.82568 14.6049 4.91498C14.6463 5.00427 14.6674 5.10161 14.6667 5.20002V9.04002C14.2634 8.79914 13.8031 8.67026 13.3333 8.66669C12.8059 8.66669 12.2903 8.82308 11.8518 9.1161C11.4133 9.40912 11.0715 9.82559 10.8697 10.3129C10.6678 10.8001 10.615 11.3363 10.7179 11.8536C10.8208 12.3709 11.0748 12.846 11.4477 13.219C11.8207 13.5919 12.2958 13.8459 12.8131 13.9488C13.3304 14.0517 13.8666 13.9989 14.3538 13.797C14.8411 13.5952 15.2576 13.2534 15.5506 12.8149C15.8436 12.3763 16 11.8608 16 11.3334V2.66669C16.0005 2.27484 15.9143 1.88775 15.7476 1.53312C15.581 1.17848 15.338 0.865081 15.036 0.615353Z" fill="current"/>
</g>
<defs>
<clipPath id="clip0_114_2216">
<rect width="16" height="16" fill="white"/>
</clipPath>
</defs>
</svg>
