<svg width="36" height="36" viewBox="0 0 36 36" fill="none" xmlns="http://www.w3.org/2000/svg">
<rect width="36" height="36" rx="18" fill="#DCDDE7"/>
<g clip-path="url(#clip0_114_2150)">
<path d="M23.6613 15.313L17.3027 10.6503C16.806 10.2866 16.2184 10.0676 15.6048 10.0174C14.9913 9.96729 14.3759 10.088 13.8268 10.3662C13.2777 10.6444 12.8163 11.0693 12.4939 11.5936C12.1715 12.118 12.0005 12.7214 12 13.337V22.667C11.999 23.2831 12.1691 23.8875 12.4912 24.4127C12.8134 24.938 13.275 25.3635 13.8246 25.642C14.3742 25.9205 14.9904 26.041 15.6045 25.9901C16.2185 25.9392 16.8064 25.7188 17.3027 25.3536L23.6613 20.691C24.0833 20.3813 24.4263 19.9767 24.6628 19.5098C24.8993 19.043 25.0225 18.527 25.0225 18.0036C25.0225 17.4803 24.8993 16.9643 24.6628 16.4974C24.4263 16.0306 24.0833 15.6259 23.6613 15.3163V15.313Z" fill="white"/>
</g>
<defs>
<clipPath id="clip0_114_2150">
<rect width="16" height="16" fill="white" transform="translate(10 10)"/>
</clipPath>
</defs>
</svg>
