<svg width="24" height="24" viewBox="0 0 24 24" fill="none" xmlns="http://www.w3.org/2000/svg">
<g clip-path="url(#clip0_153_2221)">
<path d="M14.0227 11H0.84069C0.488669 11 0 11.4477 0 12C0 12.5523 0.488669 13 0.977337 13H14.1593C14.5113 13 15 12.5523 15 12C15 11.4477 14.5113 11 14.0227 11Z" fill="#405690"/>
<path d="M1.04346 5.73933H22.9565C23.5328 5.73933 24 5.27216 24 4.69587C24 4.11957 23.5328 3.6524 22.9565 3.6524H1.04346C0.467168 3.6524 0 4.11957 0 4.69587C0 5.27216 0.467168 5.73933 1.04346 5.73933Z" fill="#405690"/>
<path d="M11 18H0.788147C0.5 18 0 18.4477 0 19C0 19.5523 0.5 20 1 20H11C11.5 20 12 19.5523 12 19C12 18.4477 11.5 18 11 18Z" fill="#405690"/>
<path d="M23.3372 10.4231C23.1303 10.2505 22.8877 10.1259 22.6269 10.0583C22.3661 9.99072 22.0936 9.98176 21.8289 10.0321L17.6195 10.8213C17.0942 10.9198 16.6197 11.1988 16.2783 11.6101C15.9369 12.0214 15.75 12.5391 15.75 13.0736V17.5882C15.4725 17.4232 15.1561 17.3352 14.8333 17.3333C14.4707 17.3333 14.1163 17.4409 13.8148 17.6423C13.5133 17.8438 13.2783 18.1301 13.1396 18.4651C13.0008 18.8001 12.9645 19.1687 13.0352 19.5243C13.106 19.88 13.2806 20.2066 13.537 20.463C13.7934 20.7194 14.12 20.894 14.4757 20.9648C14.8313 21.0355 15.1999 20.9992 15.5349 20.8604C15.8699 20.7217 16.1562 20.4867 16.3577 20.1852C16.5591 19.8837 16.6667 19.5293 16.6667 19.1667V14.9848C16.6667 14.771 16.7414 14.5638 16.878 14.3993C17.0146 14.2347 17.2045 14.1231 17.4147 14.0838L22.5402 13.1213C22.6067 13.1087 22.6751 13.1111 22.7406 13.1282C22.8061 13.1452 22.8669 13.1766 22.9189 13.2199C22.9708 13.2633 23.0125 13.3177 23.0409 13.379C23.0693 13.4404 23.0838 13.5074 23.0833 13.575V16.215C22.8061 16.0494 22.4896 15.9608 22.1667 15.9583C21.8041 15.9583 21.4496 16.0659 21.1481 16.2673C20.8466 16.4688 20.6116 16.7551 20.4729 17.0901C20.3341 17.4251 20.2978 17.7937 20.3686 18.1493C20.4393 18.505 20.6139 18.8316 20.8703 19.088C21.1267 19.3444 21.4534 19.519 21.809 19.5898C22.1646 19.6605 22.5333 19.6242 22.8683 19.4854C23.2032 19.3467 23.4896 19.1117 23.691 18.8102C23.8925 18.5087 24 18.1543 24 17.7917V11.8333C24.0003 11.564 23.9411 11.2978 23.8265 11.054C23.7119 10.8102 23.5448 10.5947 23.3372 10.4231Z" fill="#405690"/>
</g>
<defs>
<clipPath id="clip0_153_2221">
<rect width="24" height="24" fill="white"/>
</clipPath>
</defs>
</svg>
