<svg width="37" height="36" viewBox="0 0 37 36" fill="none" xmlns="http://www.w3.org/2000/svg">
<rect x="0.195312" width="36" height="36" rx="18" fill="#DCDDE7"/>
<g clip-path="url(#clip0_145_2234)">
<path d="M23.8567 15.313L17.498 10.6503C17.0013 10.2866 16.4137 10.0676 15.8002 10.0174C15.1866 9.96729 14.5712 10.088 14.0221 10.3662C13.473 10.6444 13.0117 11.0693 12.6892 11.5936C12.3668 12.118 12.1958 12.7214 12.1953 13.337V22.667C12.1944 23.2831 12.3644 23.8875 12.6865 24.4127C13.0087 24.938 13.4703 25.3635 14.0199 25.642C14.5696 25.9205 15.1857 26.041 15.7998 25.9901C16.4138 25.9392 17.0017 25.7188 17.498 25.3536L23.8567 20.691C24.2786 20.3813 24.6217 19.9767 24.8581 19.5098C25.0946 19.043 25.2178 18.527 25.2178 18.0036C25.2178 17.4803 25.0946 16.9643 24.8581 16.4974C24.6217 16.0306 24.2786 15.6259 23.8567 15.3163V15.313Z" fill="white"/>
</g>
<defs>
<clipPath id="clip0_145_2234">
<rect width="16" height="16" fill="white" transform="translate(10.1953 10)"/>
</clipPath>
</defs>
</svg>
