<svg width="16" height="16" viewBox="0 0 16 16" fill="none" xmlns="http://www.w3.org/2000/svg">
<g clip-path="url(#clip0_114_2138)">
<path d="M15.7075 14.2971L12.6107 11.199C14.9279 8.10247 14.296 3.7138 11.1995 1.39666C8.10302 -0.920492 3.71435 -0.288681 1.3972 2.80784C-0.919942 5.90435 -0.288132 10.293 2.80838 12.6102C5.29576 14.4715 8.71212 14.4715 11.1995 12.6102L14.2976 15.7082C14.6869 16.0976 15.3182 16.0976 15.7074 15.7082C16.0968 15.3189 16.0968 14.6877 15.7074 14.2984L15.7075 14.2971ZM7.02978 12.0122C4.27774 12.0122 2.0468 9.78126 2.0468 7.02923C2.0468 4.27719 4.27774 2.04625 7.02978 2.04625C9.78181 2.04625 12.0128 4.27719 12.0128 7.02923C12.0098 9.78002 9.7806 12.0093 7.02978 12.0122Z" fill="#787B86"/>
</g>
<defs>
<clipPath id="clip0_114_2138">
<rect width="16" height="16" fill="white"/>
</clipPath>
</defs>
</svg>
